<svg xmlns="http://www.w3.org/2000/svg" viewBox="0 0 512 153.13"><defs><style>.cls-1{isolation:isolate;}.cls-2{fill:#ffedbf;}.cls-3{fill:#f3dfac;}.cls-4{fill:#444;}</style></defs><g id="Layer_2" data-name="Layer 2"><g id="Layer_1-2" data-name="Layer 1"><g class="cls-1"><path class="cls-2" d="M0,56.22C0,26.3,22.66,6.1,51.72,6.1c24.12,0,36.61,13.22,43,26L73.22,42.28a23.51,23.51,0,0,0-21.5-14.1c-15.11,0-26.3,12.21-26.3,28s11.19,28,26.3,28a23.5,23.5,0,0,0,21.5-14.09l21.5,10.17c-6.24,12.49-18.88,26-43,26C22.66,106.35,0,86,0,56.22Z"/><path class="cls-2" d="M100.24,69.44c0-19.75,14.39-36.75,38.21-36.75,24.12,0,38.36,17,38.36,36.75s-14.24,36.91-38.36,36.91C114.63,106.35,100.24,89.2,100.24,69.44Zm53.61,0c0-9.29-5.52-17-15.4-17-9.73,0-15.11,7.7-15.11,17,0,9.45,5.38,17.15,15.11,17.15C148.33,86.59,153.85,78.89,153.85,69.44Z"/><path class="cls-2" d="M188.57,131.33V34.43H211v8.14a26.15,26.15,0,0,1,20.77-9.88c17.58,0,30.8,13.07,30.8,36.75s-13.22,36.91-30.8,36.91c-7.84,0-15-3.06-20.77-10v35Zm35.74-78.88c-4.79,0-10.6,2.61-13.36,6.39V80.2c2.76,3.63,8.57,6.39,13.36,6.39,8.72,0,15.4-6.54,15.4-17.15S233,52.45,224.31,52.45Z"/><path class="cls-2" d="M281.55,113.32c5.09,0,8.28-1,9.45-3.92l1.59-3.78L264.7,34.43h23.54l15.83,44.46,16-44.46h23.68l-31.67,80.2c-5.66,14.82-16.27,18.16-29.64,18.45a45.74,45.74,0,0,1-9.58-1.16L276,112A12.37,12.37,0,0,0,281.55,113.32Z"/><path class="cls-2" d="M348.82,12.78a12.79,12.79,0,0,1,25.57,0,12.79,12.79,0,1,1-25.57,0Zm1.59,21.65h22.38V104.6H350.41Z"/><path class="cls-2" d="M392.4,80.2c5.23,4.64,16.42,9.29,24.7,9.29,6.68,0,9.44-2.18,9.44-5.23,0-3.63-4.79-4.94-12.06-6.1-11.91-2-28.76-4.5-28.76-22.37,0-12.35,10.6-23.1,30.07-23.1A49.43,49.43,0,0,1,445.14,42l-8.57,14.82c-4.22-4.07-12.21-7.7-20.63-7.7-5.24,0-8.87,1.74-8.87,4.79,0,3.2,3.78,4.36,11.19,5.67,11.91,2,29.64,4.94,29.64,23.53,0,13.37-11.77,23.25-32,23.25-12.5,0-25.43-4.22-32.84-10.75Z"/><path class="cls-2" d="M464,85.72V53.9H452.4V34.43H464V15.25h22.23V34.43h14.24V53.9H486.25V79.47c0,4.07,2.32,7.12,6.25,7.12,2.47,0,4.94-.87,5.66-1.75l4.36,16.86c-2.76,2.61-8.28,4.65-16.56,4.65C471.72,106.35,464,99.23,464,85.72Z"/></g><g class="cls-1"><path class="cls-3" d="M0,65.87C0,35.94,22.66,15.74,51.72,15.74c24.12,0,36.61,13.23,43,26L73.22,51.92a23.5,23.5,0,0,0-21.5-14.09c-15.11,0-26.3,12.2-26.3,28s11.19,28,26.3,28a23.51,23.51,0,0,0,21.5-14.1L94.72,90c-6.24,12.5-18.88,26-43,26C22.66,116,0,95.65,0,65.87Z"/><path class="cls-3" d="M100.24,79.09c0-19.76,14.39-36.76,38.21-36.76,24.12,0,38.36,17,38.36,36.76S162.57,116,138.45,116C114.63,116,100.24,98.85,100.24,79.09Zm53.61,0c0-9.3-5.52-17-15.4-17-9.73,0-15.11,7.7-15.11,17s5.38,17.14,15.11,17.14C148.33,96.23,153.85,88.53,153.85,79.09Z"/><path class="cls-3" d="M188.57,141V44.07H211v8.14a26.18,26.18,0,0,1,20.77-9.88c17.58,0,30.8,13.08,30.8,36.76S249.3,116,231.72,116c-7.84,0-15-3-20.77-10v35Zm35.74-78.89c-4.79,0-10.6,2.61-13.36,6.39V89.84c2.76,3.63,8.57,6.39,13.36,6.39,8.72,0,15.4-6.54,15.4-17.14S233,62.09,224.31,62.09Z"/><path class="cls-3" d="M281.55,123c5.09,0,8.28-1,9.45-3.92l1.59-3.78L264.7,44.07h23.54l15.83,44.46,16-44.46h23.68l-31.67,80.2c-5.66,14.82-16.27,18.16-29.64,18.45a45.74,45.74,0,0,1-9.58-1.16l3.19-19.9A12.36,12.36,0,0,0,281.55,123Z"/><path class="cls-3" d="M348.82,22.43A12.79,12.79,0,1,1,361.6,35.21,12.71,12.71,0,0,1,348.82,22.43Zm1.59,21.64h22.38v70.18H350.41Z"/><path class="cls-3" d="M392.4,89.84c5.23,4.65,16.42,9.3,24.7,9.3,6.68,0,9.44-2.18,9.44-5.23,0-3.64-4.79-4.94-12.06-6.11-11.91-2-28.76-4.5-28.76-22.37,0-12.35,10.6-23.1,30.07-23.1a49.43,49.43,0,0,1,29.35,9.3l-8.57,14.82c-4.22-4.07-12.21-7.7-20.63-7.7-5.24,0-8.87,1.74-8.87,4.79s3.78,4.36,11.19,5.67c11.91,2,29.64,4.94,29.64,23.53,0,13.37-11.77,23.25-32,23.25-12.5,0-25.43-4.21-32.84-10.75Z"/><path class="cls-3" d="M464,95.36V63.54H452.4V44.07H464V24.9h22.23V44.07h14.24V63.54H486.25V89.11c0,4.07,2.32,7.12,6.25,7.12,2.47,0,4.94-.87,5.66-1.74l4.36,16.85C499.76,114,494.24,116,486,116,471.72,116,464,108.87,464,95.36Z"/></g><g class="cls-1"><path class="cls-4" d="M0,75.51C0,45.58,22.66,25.39,51.72,25.39c24.12,0,36.61,13.22,43,26L73.22,61.56a23.5,23.5,0,0,0-21.5-14.09c-15.11,0-26.3,12.2-26.3,28s11.19,28,26.3,28a23.5,23.5,0,0,0,21.5-14.09l21.5,10.17c-6.24,12.49-18.88,26-43,26C22.66,125.63,0,105.29,0,75.51Z"/><path class="cls-4" d="M100.24,88.73C100.24,69,114.63,52,138.45,52c24.12,0,38.36,17,38.36,36.76s-14.24,36.9-38.36,36.9C114.63,125.63,100.24,108.49,100.24,88.73Zm53.61,0c0-9.3-5.52-17-15.4-17-9.73,0-15.11,7.7-15.11,17s5.38,17.14,15.11,17.14C148.33,105.87,153.85,98.17,153.85,88.73Z"/><path class="cls-4" d="M188.57,150.62V53.72H211v8.13A26.18,26.18,0,0,1,231.72,52c17.58,0,30.8,13.08,30.8,36.76s-13.22,36.9-30.8,36.9c-7.84,0-15-3-20.77-10v35Zm35.74-78.89c-4.79,0-10.6,2.62-13.36,6.39V99.48c2.76,3.63,8.57,6.39,13.36,6.39,8.72,0,15.4-6.53,15.4-17.14S233,71.73,224.31,71.73Z"/><path class="cls-4" d="M281.55,132.61c5.09,0,8.28-1,9.45-3.93l1.59-3.77L264.7,53.72h23.54l15.83,44.45,16-44.45h23.68l-31.67,80.19c-5.66,14.82-16.27,18.16-29.64,18.45a45.09,45.09,0,0,1-9.58-1.16L276,131.3A12.37,12.37,0,0,0,281.55,132.61Z"/><path class="cls-4" d="M348.82,32.07A12.79,12.79,0,1,1,361.6,44.86,12.7,12.7,0,0,1,348.82,32.07Zm1.59,21.65h22.38v70.17H350.41Z"/><path class="cls-4" d="M392.4,99.48c5.23,4.65,16.42,9.3,24.7,9.3,6.68,0,9.44-2.18,9.44-5.23,0-3.63-4.79-4.94-12.06-6.1-11.91-2-28.76-4.51-28.76-22.38,0-12.34,10.6-23.1,30.07-23.1a49.43,49.43,0,0,1,29.35,9.3l-8.57,14.82c-4.22-4.07-12.21-7.7-20.63-7.7-5.24,0-8.87,1.74-8.87,4.8s3.78,4.35,11.19,5.66c11.91,2,29.64,4.94,29.64,23.54,0,13.36-11.77,23.24-32,23.24-12.5,0-25.43-4.21-32.84-10.75Z"/><path class="cls-4" d="M464,105V73.19H452.4V53.72H464V34.54h22.23V53.72h14.24V73.19H486.25V98.76c0,4.06,2.32,7.11,6.25,7.11,2.47,0,4.94-.87,5.66-1.74L502.52,121c-2.76,2.62-8.28,4.65-16.56,4.65C471.72,125.63,464,118.51,464,105Z"/></g><g class="cls-1"><path class="cls-4" d="M341.22,143.61a6,6,0,0,1,6.21-6.21,5.48,5.48,0,0,1,4.92,2.7l-1.8.92a3.62,3.62,0,0,0-3.12-1.75,4.35,4.35,0,0,0,0,8.68,3.57,3.57,0,0,0,3.12-1.75l1.8.92a5.51,5.51,0,0,1-4.92,2.7A6,6,0,0,1,341.22,143.61Z"/><path class="cls-4" d="M353.44,145.25a4.48,4.48,0,1,1,4.47,4.57A4.36,4.36,0,0,1,353.44,145.25Zm7,0a2.53,2.53,0,1,0-2.52,2.89A2.61,2.61,0,0,0,360.43,145.25Z"/><path class="cls-4" d="M364.3,152.91v-12h1.89v1.19a3.45,3.45,0,0,1,2.79-1.41c2.25,0,3.85,1.69,3.85,4.56s-1.6,4.57-3.85,4.57a3.42,3.42,0,0,1-2.79-1.42v4.51Zm4.12-10.54a2.81,2.81,0,0,0-2.23,1.17V147a2.87,2.87,0,0,0,2.23,1.17c1.5,0,2.45-1.2,2.45-2.89S369.92,142.37,368.42,142.37Z"/><path class="cls-4" d="M375.37,151.46a1.17,1.17,0,0,0,1.24-.76l.43-1-3.56-8.8h2l2.54,6.51,2.54-6.51h2l-4.19,10.26a2.92,2.92,0,0,1-3,2,4.8,4.8,0,0,1-1.06-.13l.29-1.69A2,2,0,0,0,375.37,151.46Z"/><path class="cls-4" d="M393.73,148.67a3.71,3.71,0,0,1-2.81,1.15,2.9,2.9,0,0,1-3-2.88,2.81,2.81,0,0,1,3-2.83,3.59,3.59,0,0,1,2.81,1.12v-1.3c0-1-.83-1.62-2-1.62a3.56,3.56,0,0,0-2.57,1.1l-.78-1.31a5.16,5.16,0,0,1,3.66-1.41c1.92,0,3.62.81,3.62,3.15v5.76h-1.89Zm0-2.36a2.52,2.52,0,0,0-2.07-.9,1.58,1.58,0,1,0,0,3.11,2.52,2.52,0,0,0,2.07-.9Z"/><path class="cls-4" d="M402,140.69a3.91,3.91,0,0,1,3.33,1.55l-1.25,1.15a2.31,2.31,0,0,0-2-1,2.9,2.9,0,0,0,0,5.77,2.36,2.36,0,0,0,2-1l1.25,1.15a3.91,3.91,0,0,1-3.33,1.55,4.57,4.57,0,0,1,0-9.13Z"/><path class="cls-4" d="M407,140.91h1.89v1.28a3.71,3.71,0,0,1,2.83-1.48v1.87a3.37,3.37,0,0,0-.6-.05,3,3,0,0,0-2.23,1.15v5.92H407Z"/><path class="cls-4" d="M412.72,145.25a4.47,4.47,0,1,1,4.46,4.57A4.35,4.35,0,0,1,412.72,145.25Zm7,0a2.53,2.53,0,1,0-2.52,2.89A2.61,2.61,0,0,0,419.7,145.25Z"/><path class="cls-4" d="M423.68,147.1a4.48,4.48,0,0,0,2.95,1.22c1.13,0,1.71-.41,1.71-1.06s-.92-1-2-1.26c-1.49-.32-3.28-.72-3.28-2.66,0-1.42,1.23-2.65,3.42-2.65a4.94,4.94,0,0,1,3.39,1.23l-.79,1.33a3.51,3.51,0,0,0-2.58-1.05c-1,0-1.62.36-1.62,1s.87.9,1.89,1.13c1.51.32,3.37.76,3.37,2.81,0,1.53-1.28,2.7-3.62,2.7a5.3,5.3,0,0,1-3.73-1.35Z"/><path class="cls-4" d="M432.17,147.1a4.51,4.51,0,0,0,3,1.22c1.13,0,1.71-.41,1.71-1.06s-.92-1-2-1.26c-1.5-.32-3.28-.72-3.28-2.66,0-1.42,1.22-2.65,3.42-2.65a4.91,4.91,0,0,1,3.38,1.23l-.79,1.33A3.47,3.47,0,0,0,435,142.2c-1,0-1.62.36-1.62,1s.86.9,1.89,1.13c1.51.32,3.36.76,3.36,2.81,0,1.53-1.27,2.7-3.61,2.7a5.3,5.3,0,0,1-3.73-1.35Z"/><path class="cls-4" d="M445.56,147.59v-5h-1.44v-1.65h1.44v-2.38h1.9v2.38h1.76v1.65h-1.76v4.56c0,.59.28,1,.82,1a1.25,1.25,0,0,0,.85-.3l.45,1.42a2.51,2.51,0,0,1-1.78.56A2,2,0,0,1,445.56,147.59Z"/><path class="cls-4" d="M456.81,144.13c0-1.35-.7-1.76-1.76-1.76a2.91,2.91,0,0,0-2.23,1.17v6.06h-1.89v-12h1.89v4.5a4.13,4.13,0,0,1,3.08-1.41,2.48,2.48,0,0,1,2.8,2.76v6.15h-1.89Z"/><path class="cls-4" d="M465,140.69c2.61,0,4.29,2,4.29,4.74v.45h-6.72a2.63,2.63,0,0,0,2.77,2.39,3.68,3.68,0,0,0,2.47-1l.86,1.24a5,5,0,0,1-3.52,1.26,4.57,4.57,0,0,1-.15-9.13Zm-2.45,3.85h4.9a2.33,2.33,0,0,0-2.45-2.3A2.4,2.4,0,0,0,462.57,144.54Z"/><path class="cls-4" d="M481.37,143.23l-2,6.37h-2l-2.7-8.69h2l1.84,6.32,2.07-6.32h1.65l2.07,6.32,1.84-6.32h2l-2.7,8.69h-2Z"/><path class="cls-4" d="M493.24,140.69c2.62,0,4.29,2,4.29,4.74v.45h-6.72a2.64,2.64,0,0,0,2.78,2.39,3.68,3.68,0,0,0,2.46-1l.87,1.24a5.08,5.08,0,0,1-3.53,1.26,4.57,4.57,0,0,1-.15-9.13Zm-2.44,3.85h4.89a2.32,2.32,0,0,0-2.45-2.3A2.39,2.39,0,0,0,490.8,144.54Z"/><path class="cls-4" d="M499.4,137.6h1.89v4.51a3.45,3.45,0,0,1,2.79-1.42c2.23,0,3.85,1.77,3.85,4.57s-1.64,4.56-3.85,4.56a3.49,3.49,0,0,1-2.79-1.41v1.19H499.4Zm4.12,10.54c1.51,0,2.47-1.18,2.47-2.88s-1-2.89-2.47-2.89a2.85,2.85,0,0,0-2.23,1.18V147A2.79,2.79,0,0,0,503.52,148.14Z"/><path class="cls-4" d="M510.74,147.28a1.26,1.26,0,1,1-1.26,1.26A1.28,1.28,0,0,1,510.74,147.28Z"/></g></g></g></svg>